{
  "accessors": [
    {
      "bufferView": 2,
      "componentType": 5126,
      "count": 3421,
      "max": [
        77.86408996582031,
        428.90521240234375,
        251.98382568359375
      ],
      "min": [
        -67.42024993896484,
        -343.29205322265625,
        -231.34622192382813
      ],
      "type": "VEC3"
    },
    {
      "bufferView": 2,
      "byteOffset": 41052,
      "componentType": 5126,
      "count": 3421,
      "max": [
        0.9999811053276062,
        0.9977516531944275,
        0.9930837750434875
      ],
      "min": [
        -0.9998423457145691,
        -0.9997013807296753,
        -0.9972477555274963
      ],
      "type": "VEC3"
    },
    {
      "bufferView": 3,
      "componentType": 5126,
      "count": 3421,
      "max": [
        0.9999136328697205,
        0.9991875290870667,
        0.9867929816246033,
        1.0
      ],
      "min": [
        -0.9997963905334473,
        -0.9932910203933716,
        -0.9994301795959473,
        -1.0
      ],
      "type": "VEC4"
    },
    {
      "bufferView": 1,
      "componentType": 5126,
      "count": 3421,
      "max": [
        0.9936450123786926,
        0.872186005115509
      ],
      "min": [
        0.00635500019416213,
        0.00635500019416213
      ],
      "type": "VEC2"
    },
    {
      "bufferView": 0,
      "componentType": 5125,
      "count": 13614,
      "type": "SCALAR"
    }
  ],
  "asset": {
    "extras": {
      "author": "milacetious (https://sketchfab.com/milacetious)",
      "license": "CC-BY-4.0 (http://creativecommons.org/licenses/by/4.0/)",
      "source": "https://sketchfab.com/3d-models/varins-axe-acddcddde4434fd1b638da42dca190d9",
      "title": "Varins Axe"
    },
    "generator": "Sketchfab-13.8.0",
    "version": "2.0"
  },
  "bufferViews": [
    {
      "buffer": 0,
      "byteLength": 54456,
      "name": "floatBufferViews",
      "target": 34963
    },
    {
      "buffer": 0,
      "byteLength": 27368,
      "byteOffset": 54456,
      "byteStride": 8,
      "name": "floatBufferViews",
      "target": 34962
    },
    {
      "buffer": 0,
      "byteLength": 82104,
      "byteOffset": 81824,
      "byteStride": 12,
      "name": "floatBufferViews",
      "target": 34962
    },
    {
      "buffer": 0,
      "byteLength": 54736,
      "byteOffset": 163928,
      "byteStride": 16,
      "name": "floatBufferViews",
      "target": 34962
    }
  ],
  "buffers": [
    {
      "byteLength": 218664,
      "uri": "scene.bin"
    }
  ],
  "images": [
    {
      "uri": "textures/DefaultMaterial_baseColor.png"
    },
    {
      "uri": "textures/DefaultMaterial_metallicRoughness.png"
    },
    {
      "uri": "textures/DefaultMaterial_emissive.jpeg"
    },
    {
      "uri": "textures/DefaultMaterial_normal.png"
    }
  ],
  "materials": [
    {
      "alphaMode": "BLEND",
      "doubleSided": true,
      "emissiveFactor": [
        1.0,
        1.0,
        1.0
      ],
      "emissiveTexture": {
        "index": 2
      },
      "name": "DefaultMaterial",
      "normalTexture": {
        "index": 3
      },
      "occlusionTexture": {
        "index": 1
      },
      "pbrMetallicRoughness": {
        "baseColorTexture": {
          "index": 0
        },
        "metallicRoughnessTexture": {
          "index": 1
        }
      }
    }
  ],
  "meshes": [
    {
      "name": "defaultMaterial",
      "primitives": [
        {
          "attributes": {
            "NORMAL": 1,
            "POSITION": 0,
            "TANGENT": 2,
            "TEXCOORD_0": 3
          },
          "indices": 4,
          "material": 0,
          "mode": 4
        }
      ]
    }
  ],
  "nodes": [
    {
      "children": [
        1
      ],
      "matrix": [
        0.004857232794165611,
        -0.9954441785812378,
        0.095222547650337,
        0.0,
        -1.3877787807814457e-17,
        -0.09522367268800713,
        -0.9954559206962585,
        0.0,
        0.9999881982803345,
        0.004835161380469799,
        -0.00046252357424236726,
        0.0,
        0.0,
        0.0,
        0.0,
        1.0
      ],
      "name": "Sketchfab_model"
    },
    {
      "children": [
        2
      ],
      "matrix": [
        1.0,
        0.0,
        0.0,
        0.0,
        0.0,
        -4.371139006309477e-08,
        0.999999999999999,
        0.0,
        0.0,
        -0.999999999999999,
        -4.371139006309477e-08,
        0.0,
        0.0,
        0.0,
        0.0,
        1.0
      ],
      "name": "Collada visual scene group"
    },
    {
      "children": [
        3
      ],
      "matrix": [
        0.9826,
        0.12854,
        0.134068,
        0.0,
        -0.029679,
        0.821219,
        -0.569841,
        0.0,
        -0.183346,
        0.555947,
        0.810745,
        0.0,
        0.0,
        0.0,
        0.0,
        1.0
      ],
      "name": "Retopo_Cylinder.026"
    },
    {
      "mesh": 0,
      "name": "defaultMaterial"
    }
  ],
  "samplers": [
    {
      "magFilter": 9729,
      "minFilter": 9987,
      "wrapS": 10497,
      "wrapT": 10497
    }
  ],
  "scene": 0,
  "scenes": [
    {
      "name": "Sketchfab_Scene",
      "nodes": [
        0
      ]
    }
  ],
  "textures": [
    {
      "sampler": 0,
      "source": 0
    },
    {
      "sampler": 0,
      "source": 1
    },
    {
      "sampler": 0,
      "source": 2
    },
    {
      "sampler": 0,
      "source": 3
    }
  ]
}
